<svg viewBox="0 0 100 100" xmlns="http://www.w3.org/2000/svg"><path d="M20.531 42.297c.117-1.293.61-1.95 1.73-2.937 1.895-1.672 5.079-1.52 9.727.457 16.137 6.863 24.043 2.703 24.125 2.66l.211-.098s5.89-7.598 6.078-7.785c.184-.184-18.39 11.23-36.832-7.832 0 0 20.625 14.875 39.125 4.25 0 0 6.504-4.125 12.13-2.5s2.495 4.125 6.995 6.187c6.672 3.059.625 5.688.625 5.688-7.375-4.063-6.312-2.375-6.312-2.375s8.12 10.062 2.187 3.812c-5.937-6.246-7.246-1.687-7.246-1.687s-3.883 10.434-5.687 15.148l.347.719 5.532 12.895-3.813 2.668-3.871-10.051v8.722l-3.406 1.602-.203-.914c-.16-.719-.25-1.664-.356-2.762-.226-2.367-.562-5.945-1.937-6.539-.817-.355-2.055.406-2.95 1.102-6.734 5.234-17.363 4.394-22.133 1.816-1.492-.805-2.765-1.062-3.68-.746a1.98 1.98 0 0 0-1.144.996l-3.836 8.438-3.21-1.637 4.078-9.02-1.688-.562-6.102 8.398-3.175-1.476.504-.73c2.597-3.782 6.66-10.454 6.496-12.259-.032-.367-.286-1.258-.578-2.289a88 88 0 0 1-.91-3.406l-.188.285s-1.477 5.75-4.055 10.062-4.055 5.375-4.055 5.375c4.688-7.219 7.477-23.523 7.477-23.523zm44.645 12.336a19 19 0 0 1-.152-2.266c0-1.359-1.97-.421-1.97-.421s-2.234.964-2.671 1.218c-.469.274-1.063.364-1.156-.136L56.5 43.98c-.34.191-8.203 4.402-25.098-2.782-4.008-1.703-6.75-1.94-8.148-.714-2.543 2.238-.606 9.09.437 12.77.34 1.195.582 2.058.63 2.562.234 2.578-4.446 9.817-6.255 12.512l.453.211 6.024-8.289 4.312 1.438-4.176 9.23.536.273L28.39 64.2c.008-.02.524-1.27 1.985-1.8 1.351-.489 3.012-.212 4.93.824 4.52 2.441 14.5 2.98 20.5-1.684 1.793-1.394 3.253-1.82 4.464-1.297 2.188.945 2.532 4.574 2.836 7.774.055.582.106 1.144.172 1.636l.797-.375.11-9.422 1.59-.793L70.198 69.2l1.187-.828-4.605-10.844z" fill="currentColor" /></svg>