<?xml version="1.0" encoding="UTF-8"?>
<svg width="100pt" height="100pt" version="1.1" viewBox="0 0 100 100" xmlns="http://www.w3.org/2000/svg" fill="currentColor">
 <path d="m92.566 20.879-10.273-1.8086v-2.4062c0-2.8711-2.3359-5.207-5.207-5.207h-9.5664l-0.71094-4.0273c-0.5-2.8281-3.207-4.7188-6.0352-4.2266l-53.344 9.4062c-1.3711 0.24219-2.5664 1.0039-3.3633 2.1406-0.79688 1.1406-1.1055 2.5195-0.86328 3.8906l11.578 65.652c0.44531 2.5234 2.6484 4.3047 5.125 4.3047 0.30078 0 0.60156-0.027344 0.90625-0.078125l0.84766-0.14844c0.41016 0.10547 0.82031 0.16797 1.2539 0.16797h9.4492l46.82 8.2539c0.30078 0.050781 0.60156 0.078125 0.89453 0.078125 2.4805 0 4.6914-1.7852 5.1445-4.3086l11.574-65.648c0.49219-2.8242-1.4062-5.5312-4.2305-6.0391zm-15.484-7.3359c1.7227 0 3.125 1.4023 3.125 3.125v66.668c0 1.7227-1.4023 3.125-3.125 3.125l-44.555-0.003907 29.324-5.1719c0.27344-0.046875 0.51563-0.20312 0.67188-0.42969l13.52-19.309c0.16016-0.22656 0.21875-0.50781 0.17188-0.77734l-8.3281-47.23h9.1992zm-14.824 64.062-2.0977-11.883c-0.046875-0.27344 0.015625-0.54688 0.17578-0.77734 0.16016-0.23047 0.39844-0.38281 0.67187-0.42969l11.883-2.0938-10.633 15.188zm-44.141 8.3477c-0.68359-0.48047-1.1406-1.1953-1.2852-2.0195l-11.574-65.652c-0.14453-0.82422 0.039063-1.6523 0.51563-2.3359 0.48047-0.68359 1.1953-1.1406 2.0195-1.2852l53.344-9.4023c0.18359-0.03125 0.36328-0.046874 0.54297-0.046874 1.4883 0 2.8086 1.0703 3.0742 2.582l9.2266 52.316-52.316 9.2266c-0.56641 0.10156-0.94531 0.64062-0.84375 1.207 0.089844 0.50391 0.52734 0.85938 1.0234 0.85938 0.058594 0 0.12109-0.003906 0.18359-0.015625l36.094-6.3633c-0.058594 0.34375-0.070313 0.69922-0.007813 1.0586l0.54297 3.0742-35.906 6.332c-0.56641 0.10156-0.94531 0.64062-0.84375 1.207 0.089844 0.50391 0.52734 0.85938 1.0234 0.85938 0.058593 0 0.12109-0.003907 0.18359-0.015626l35.906-6.332 1.4492 8.2109-40.008 7.0547c-0.82031 0.14453-1.6523-0.039062-2.3359-0.51562zm76.629-59.395-11.574 65.645c-0.30469 1.6992-1.9336 2.8359-3.6289 2.543l-35.18-6.2031h32.719c2.8711 0 5.207-2.3359 5.207-5.207l0.003907-62.148 9.9102 1.7422c1.6992 0.30469 2.8398 1.9336 2.543 3.6289zm-31.926 12.25c0.56641-0.10156 0.94531-0.64062 0.84375-1.207-0.10156-0.56641-0.64062-0.94531-1.207-0.84375l-45.137 7.957c-0.56641 0.10156-0.94531 0.64062-0.84375 1.207 0.089844 0.50391 0.52734 0.85938 1.0234 0.85938 0.058594 0 0.12109-0.003906 0.18359-0.015625zm-1.0859-6.1562c0.56641-0.10156 0.94531-0.64062 0.84375-1.207-0.10156-0.56641-0.63672-0.94531-1.207-0.84375l-45.137 7.957c-0.56641 0.10156-0.94531 0.64062-0.84375 1.207 0.089844 0.50391 0.52734 0.85938 1.0234 0.85938 0.058594 0 0.12109-0.003906 0.18359-0.015625zm-1.0859-6.1562c0.56641-0.10156 0.94531-0.64062 0.84375-1.207-0.10156-0.56641-0.63672-0.94531-1.207-0.84375l-45.137 7.957c-0.56641 0.10156-0.94531 0.64062-0.84375 1.207 0.089843 0.50391 0.52734 0.85938 1.0234 0.85938 0.058594 0 0.12109-0.003906 0.18359-0.015625zm-1.0859-6.1523c0.56641-0.10156 0.94531-0.64062 0.84375-1.207-0.10156-0.56641-0.63672-0.94531-1.207-0.84375l-45.137 7.957c-0.56641 0.10156-0.94531 0.64062-0.84375 1.207 0.089844 0.50391 0.52734 0.85938 1.0234 0.85938 0.058593 0 0.12109-0.003906 0.18359-0.015625zm-1.082-6.1562c0.56641-0.10156 0.94531-0.64062 0.84375-1.207-0.10156-0.56641-0.63672-0.94531-1.207-0.84375l-45.137 7.957c-0.56641 0.10156-0.94531 0.64062-0.84375 1.207 0.089843 0.50391 0.52734 0.85938 1.0234 0.85938 0.058594 0 0.12109-0.003906 0.18359-0.015625zm5.4258 30.773c0.56641-0.10156 0.94531-0.64063 0.84375-1.207s-0.63672-0.94531-1.207-0.84375l-45.137 7.957c-0.56641 0.10156-0.94531 0.64062-0.84375 1.207 0.089844 0.50391 0.52734 0.85938 1.0234 0.85938 0.058593 0 0.12109-0.003906 0.18359-0.015625zm1.0859 6.1562c0.56641-0.10156 0.94531-0.64063 0.84375-1.207-0.10156-0.56641-0.63672-0.94531-1.207-0.84375l-45.137 7.957c-0.56641 0.10156-0.94531 0.64062-0.84375 1.207 0.089843 0.50391 0.52734 0.85938 1.0234 0.85938 0.058594 0 0.12109-0.003906 0.18359-0.015625zm1.082 6.1562c0.56641-0.10156 0.94531-0.64063 0.84375-1.207-0.10156-0.56641-0.63672-0.94531-1.207-0.84375l-45.137 7.957c-0.56641 0.10156-0.94531 0.64062-0.84375 1.207 0.089843 0.50391 0.52734 0.85938 1.0234 0.85938 0.058594 0 0.12109-0.003906 0.18359-0.015625z"/>
</svg>
