<?xml version="1.0" encoding="UTF-8"?>
<svg width="100pt" height="100pt" version="1.1" viewBox="0 0 100 100" xmlns="http://www.w3.org/2000/svg" fill="currentColor">
 <path d="m58 20.602c-6.8086 0-13.27 2.3008-18.5 6.5195v-1.0312c0-3.0312-2.4609-5.4883-5.4883-5.4883h-4.5117v-10.5c0-0.82812-0.67188-1.5-1.5-1.5s-1.5 0.67188-1.5 1.5v10.5h-4.5117c-3.0312 0-5.4883 2.4609-5.4883 5.4883v42.512h-2.5c-0.82812 0-1.5 0.67188-1.5 1.5 0 0.82813 0.67188 1.5 1.5 1.5h9.5v17h-3.5c-0.82812 0-1.5 0.67188-1.5 1.5 0 0.82813 0.67188 1.5 1.5 1.5h16c0.82812 0 1.5-0.67187 1.5-1.5 0-0.82812-0.67188-1.5-1.5-1.5h-3.5v-17h5.3086c5.4883 5.1602 12.621 8 20.191 8 16.27 0 29.5-13.23 29.5-29.5 0-16.273-13.238-29.5-29.5-29.5zm-38.5 48v-5h2.5c0.82812 0 1.5-0.67187 1.5-1.5 0-0.82812-0.67188-1.5-1.5-1.5h-2.5v-7h2.5c0.82812 0 1.5-0.67187 1.5-1.5 0-0.82812-0.67188-1.5-1.5-1.5h-2.5v-7h2.5c0.82812 0 1.5-0.67187 1.5-1.5 0-0.82812-0.67188-1.5-1.5-1.5h-2.5v-7h2.5c0.82812 0 1.5-0.67187 1.5-1.5 0-0.82812-0.67188-1.5-1.5-1.5h-2.5v-4.5117c0-1.3711 1.1211-2.4883 2.4883-2.4883h12.02c1.3711 0 2.4883 1.1211 2.4883 2.4883l0.003906 42.512zm38.5 8c-5.6797 0-11.078-1.7812-15.578-5.0703 0.62891-0.17969 1.0898-0.75 1.0898-1.4297 0-0.82812-0.67188-1.5-1.5-1.5h-2.5v-37.473c4.9805-4.8594 11.531-7.5312 18.5-7.5312 14.609 0 26.5 11.891 26.5 26.5 0 14.613-11.902 26.504-26.512 26.504zm-13.5-34.5c0-2.4805 2.0195-4.5 4.5-4.5s4.5 2.0195 4.5 4.5c0 2.4805-2.0195 4.5-4.5 4.5s-4.5-2.0234-4.5-4.5zm36.07 15.188c0 0.82813-0.67187 1.5-1.5 1.5-0.82812 0-1.5-0.67187-1.5-1.5 0-0.82031-0.28125-1.6406-0.76953-2.2891-0.5-0.66016-0.37109-1.6016 0.28906-2.1016s1.6016-0.37109 2.1016 0.28906c0.88672 1.1836 1.3789 2.6328 1.3789 4.1016zm-26.059-26.07c-0.058594-1.5586 0.55078-3.0898 1.6602-4.1914 0.58984-0.57812 1.5391-0.57812 2.1211 0.011718 0.57812 0.58984 0.57812 1.5391-0.011719 2.1211-0.51172 0.5-0.80078 1.2305-0.76953 1.9492 0.03125 0.82812-0.62109 1.5195-1.4492 1.5508h-0.050781c-0.8125 0-1.4805-0.62891-1.5-1.4414zm16.449 3.1328c-2.1406-1.1406-4.8516-0.98047-6.9219 0.41016-1.8906 1.2695-2.5195 3.4688-3.0703 5.4102l-0.10156 0.33984c-0.92188 3.1992-2.0703 5.6211-3.6094 7.6094-1.8789 2.4297-4.3984 4.1484-7.0898 4.8398-3.3984 0.87109-5.3711 2.1914-6.1914 4.1484-0.85937 2.0312-0.55078 4.3984 0.78906 6.1914 1.5508 2.0781 4.4688 3.3086 7.6484 3.3086 0.44141 0 0.87891-0.019531 1.3281-0.070313 5.0508-0.53906 15.711-5.1211 19.898-18.57 0.71094-2.2891 0.85938-4.8711 0.85938-6.6211 0.011719-3.2969-1.25-5.7773-3.5391-6.9961zm-14.961 25.449c-0.89062 0-1.6094-0.71875-1.6094-1.6094s0.71875-1.6094 1.6094-1.6094 1.6094 0.71875 1.6094 1.6094c0 0.88672-0.71875 1.6094-1.6094 1.6094zm10.09-10.082c-0.89062 0-1.6094-0.71875-1.6094-1.6094s0.71875-1.6094 1.6094-1.6094 1.6094 0.71875 1.6094 1.6094-0.71875 1.6094-1.6094 1.6094zm-1.0898 20.531c0 0.89062-0.71875 1.6094-1.6094 1.6094s-1.6094-0.71875-1.6094-1.6094 0.71875-1.6094 1.6094-1.6094 1.6094 0.71875 1.6094 1.6094z"/>
</svg>
